# xmcd
# Copyright (C) 1995-1998 Ti Kan
#
# Track frame offsets:
#       150
#       15466
#       42020
#       66178
#       87200
#       113584
#       147325
#       174767
#       209495
#       236917
#       268885
#       299581
#       325855
#
# Disc length: 4756 seconds
#
# Revision: 0
# Processed by: cddbd v1.5.2PL0 Copyright (c) Steve Scherf et al.
# Submitted via: CD-Transfer v1.0
#
DISCID=bb12920d
DTITLE=Clubbing 185 - 
DYEAR=1900
DGENRE=
TTITLE0=Keep The Funk (Radio Edit)
TTITLE1=Soul Together (Original Mix)
TTITLE2=Cali Soul ((Quibiko Remix)
TTITLE3=See About Me (Original Mix)
TTITLE4=Body Soul (Original Mix)
TTITLE5=Love Sensation (Dr. Packer Remix)
TTITLE6=Who Got The Funk (Original Mix)
TTITLE7=Follow Me (Original Mix)
TTITLE8=Answer From Above (Dr. Packer Remix)
TTITLE9=Freaky Dancing (Original Mix)
TTITLE10=Elevate The Groove (Original Mix)
TTITLE11=Funky Music (Original Mix)
TTITLE12=Funk Speech (Original Mix)
EXTD=
EXTT0=
EXTT1=
EXTT2=
EXTT3=
EXTT4=
EXTT5=
EXTT6=
EXTT7=
EXTT8=
EXTT9=
EXTT10=
EXTT11=
EXTT12=
PLAYORDER=
